<?xml version="1.0" encoding="utf-8"?>
<!-- Generator: Adobe Illustrator 19.0.0, SVG Export Plug-In . SVG Version: 6.00 Build 0)  -->
<svg version="1.1" id="Calque_1" xmlns="http://www.w3.org/2000/svg" xmlns:xlink="http://www.w3.org/1999/xlink" x="0px" y="0px"
	 viewBox="0 0 640 640" style="enable-background:new 0 0 640 640;" xml:space="preserve">
<style type="text/css">
	.st0{fill:#EE7F41;}
	.st1{fill:#60A050;}
	.st2{fill:#FFFFFF;}
</style>
<path id="XMLID_785_" d="M449.1,106c5.7-5.7,5-8.9,4.2-15.4c-1.3-11.2-9.3-18.1-14.4-26.5c0.9-2.8,1.6-5.3,2.4-7.9
	c1.7-0.2,3.4-0.6,5.1-0.5c1.7,0.1,4.3,0.3,4.8,1.3c2.3,4.6,7.4,6.7,9.6,11.2c1.3,2.7,3.2,5.2,5,7.9c2.6,0.2,6.1-3.8,7.9,0.5
	c1,2.4,0.2,5.6,0.2,8.4c4.8,4,4.8,4,0.4,9.6c0.5,2,1.4,4.2,3.9,3.1c3.4-1.5,5.2,0.6,7.4,2.3c2.5,1.9,4.6,4.1,3.9,7.6
	c-0.1,0.3,0.4,0.7,1.1,1.8c1.4-2.3,2.8-4.4,4.5-7.1c2.4,2.7,3.5,3.9,4.7,5.2c2.5-0.4,5.2-0.8,8.4-1.2c0.5-1.2,1.1-2.8,1.9-4.3
	c1.9-3.7,3.8-4.4,8-3.4c0.4,0.1,1,0.7,1.1,0.6c5.9-4.7,8.5,3.1,13.1,3.5c0.8,0.1,1.4,2.8,2.3,4.6c2.3,0.2,5.8-0.3,8.5,1
	c1.8,0.8,2.4,4,3.9,6.6c1-0.4,2.9-1.2,4.4-1.8c4.2,2.7,8,5.2,11.8,7.6c1.1,0.7,2.6,1.7,3.5,1.4c3.1-0.9,5.2,0,6.8,2.4
	c0.7,1,1.4,2.3,1.4,3.4c-0.2,5.4-4.8,9.4-10.1,9c-1.3-0.1-2.6-0.5-4.3-0.9c-0.7,1.6-1.5,3.2-2.4,5.2c-2.5-0.9-4.7-1.7-6.8-2.6
	c-2.9,4.6-2.9,4.6-11.3,4.1c-0.1,1.8-0.2,3.5-0.3,5.5c4.3,0,8.4,0,13.2,0c-1.3,3.2-2.3,5.8-3.6,8.8c3.7,1.1,7.1,2.2,11.5,3.6
	c-2.6,3.8-5,7.3-7.6,11.2c3.3,2.9,6.6,6,10.4,9.3c-3.1,3.2-4.8,7-5.2,11.3c-0.1,1.4,0.1,2.9,0.2,4.4c0.1,1.9,0.6,3.9,0.3,5.7
	c-0.8,4.2-1.9,8.5-3.1,12.6c-1.2,4.1-7.5,5.2-10.9,1.7c-1.7-1.7-2.8-3.9-4-6c-1.3-2.3-2.2-4.7-3.6-7.6c-0.9,2.3-1.6,4.1-2.4,6
	c-3.5-1.5-6.7-2.9-10.9-4.8c-0.3-0.7-1.3-2.6-2.4-5c-2.2,0.9-4.1,1.7-6.3,2.6c-0.8-1-2.1-1.9-2.3-2.9c-1.3-9.7-4-19.3-3.3-29.3
	c0.4-5.5-0.3-5.8-6.9-7.8c1.2,2.9,2.1,5.2,3.2,7.7c-3,2.2-4.1,4.7-1.7,8.6c1.2,2.1,0.8,5.6,0.2,8.2c-0.7,3.4-1.3,6.7,0.7,9.5
	c2.8,4.1,2.4,8.8,3.3,13.3c0.6,2.9-0.8,5.1-3.3,6.5c-1.7,1-3.3,2.2-5.1,3c-2,1-2.7,2.5-2.9,4.7c-0.2,2.6-1.1,5.2-1.3,7.8
	c-0.4,4.7-1.8,8.1-6.6,10.3c-2.5,1.1-4.3,4.8-5.5,7.8c-1.4,3.2-3.1,4.6-6.5,3.9c-1.5-0.3-3.3-0.8-4.5-0.3c-5.1,2.2-7.8-0.2-10.2-5
	c0.6-1.7,1.5-3.9,2.2-6.2c1.6-5.2,3.3-10.3,0.1-15.8c-1.1-2-0.3-5.6,0.7-8.1c2.7-6.7,5.9-13.2,8.9-19.8c1.3-3,2.1-6.1-1.3-8.9
	c-1.7,5.7-2.7,11-4.8,15.9c-3.3,7.6-7.2,15-11.1,22.3c-0.8,1.4-3,2.7-4.6,2.7c-1,0-2.7-2.2-3-3.7c-0.6-2.4-1-5.2-0.5-7.6
	c1.1-5.1,3.2-10,4.4-15.2c2.3-9.6,4-19.3,6.7-28.7c1.9-7-2.4-9.8-7-13.6c-2.3,4.1-2.8,7.6-0.3,11.4c1.6,2.5,2.8,5.2,4.6,8.8
	c-3.1-0.2-4.9-0.3-7.4-0.5c-0.4,3.8-0.9,7.6-1.3,10.7c-4.1,2.3-8.4,3.6-10.9,6.5c-2.2,2.6-2.3,7-3.3,10.5c-3,0.2-3.5-1.8-4-3.7
	c-1.5-5.6-0.5-10.9,2-16c3.7-7.3,4.5-15,3.8-23c-0.6-7.6-5.6-13.2-8.4-19.8c-0.4-1-1.9-1.7-3.1-2.3c-9.4-4.9-19.1-8.7-29.8-10.1
	c-4.2-0.5-7.4-0.1-10.4,3.5c-4.5,5.6-11,8.1-17.9,8.8c-8.1,0.9-16.2,1.3-24.3,1.5c-29.3,0.4-58.5,1.9-87,8.4
	c-20.3,4.6-40.2,11-60.2,17.2c-12.2,3.8-23.9,8.7-36,12.9c-7.5,2.6-15,4.9-22.6,7.1c-3,0.9-6.3,0.9-9.4,1.4c-1.4-4,1-5.7,2.4-7.7
	c12.3-17.2,28.6-29.7,46.7-40c35.4-20.3,73.1-34.3,113.9-39c14.2-1.6,28.3-4.1,42.4-5.7c13-1.5,25.9,0,38.6,2.5
	c6.4,1.2,12.1,4.1,16,9.6c1.9,2.7,4.7,4,7.9,4c11.3-0.3,22.7-0.7,34.7-1c-1.8-5-5.5-8.1-5.7-13.5c2.6,0.6,4.6,1.1,6.9,1.7
	c0.8-1.6,1.6-3.4,2.6-5c3.3-4.9,9.2-4.7,12.4,0.2C446.9,102.2,447.9,104,449.1,106z M497.8,151.3c-0.9-0.1-1.9-0.1-2.8-0.2
	c0.3,0.6,0.5,1.3,0.8,1.9C496.4,152.5,497.1,151.9,497.8,151.3c1.7-1,3.5-1.9,5.3-2.8c3,4.2,7,6.3,11.9,5c2.9,2.5,3.3,6.8,7.9,7.5
	c1.7-6.2,6.5-6.8,11.7-6.6c2.2,0.1,4.4,0.4,6.5,0.2c1.4-0.2,2.7-1.1,4.1-1.7c-3.7-0.9-7-0.3-10.2-0.6c-4.7-0.4-10-0.3-13.8-2.5
	c-3.2-1.8-5.8-2.5-9.1-2.2c-3.1,0.3-6.1,0.6-9.2,1C500.1,147.2,498.5,148.3,497.8,151.3z M534.6,169.6c2.3-0.7,4.5-1.5,6.8-2.2
	C537.9,165.4,536.3,167.5,534.6,169.6c-0.8,0.9-1.8,1.6-2.7,2.4c0.4,0.3,0.8,0.6,1.3,1C533.6,171.9,534.1,170.8,534.6,169.6z
	 M489.9,174.9c0.2,1.3,0.5,2.6,0.7,3.9c0.3-0.1,0.6-0.2,1-0.3C491,177.3,490.4,176.1,489.9,174.9c-0.2-1.4-0.2-3.1-0.7-4.4
	c-0.3-0.6-1.7-0.8-2.7-1.1c-0.1,0.9-0.6,2.2-0.2,2.7C487.3,173.2,488.7,174,489.9,174.9z M443.8,164.4c0.5,1.5,0.9,3.1,1.8,5.9
	C446.6,166.7,445.2,165.5,443.8,164.4c-1.4-3.3,2.5-4.1,4.1-7c-3.5,0.4-6.2,0.7-8.9,1C438.6,162.3,440.8,163.6,443.8,164.4z
	 M455.5,150c1.3-1.7,2.7-3.5,4.6-5.9c-3.4-1.2-6.9-1.7-9.5-3.6c-2.8-2-4.6-5.3-6.9-8c-2,1.2-2.4,2.5-0.5,4.6c3,3.4,5.7,7.1,8.7,10.5
	c0.9,1.1,2.5,1.6,3.7,2.4c3.2,9,11.3,13.2,18,18.8c2-4.3-3.3-5.6-3.7-9c4.8,0.8,4.8,0.8,8.4-0.6c-4.4-1.8-7.2-4.1-6.2-9.3
	c0.4-2.3-1.8-3.7-4.6-2.9C463.5,148,459.5,148.9,455.5,150z M450.7,125.7c1.6,0.6,3.1,1.6,4.7,1.8c3.4,0.2,5.2,1.8,5.6,5.2
	c0.1,0.8,0.8,1.5,1,1.9c3.6,0.5,6.7,1,10.1,1.5c-0.3,2.5-0.4,4.3-0.7,6.9c2.5-1.2,4.3-1.9,5.9-2.8c1.6-0.9,3.1-2.1,5.4-3.7
	c-2.1-1.6-3.8-2.7-5.3-4.1c-3.6-3.3-9.1-5.3-7.6-12.1c-4.7,5.2-4.6,5-11.6,3c-1.6-0.5-3.7,0.4-5.6,0.7c0.2-2.7-1.7-3.9-3.6-5
	c-2-1.2-2.8-2.7-1.8-4.9c0.1-0.3-0.2-0.7-0.3-1.1c-1.7,0.3-3.3,0.5-5.6,0.9c0-3.5,0-6.4,0-9.9c-2.3,0.9-4.2,1.6-6.4,2.4
	c0.4,2.7,0.4,5.2,1.1,7.4c0.8,2.5,3.4,4.3,1.2,7.6c-0.6,0.9,1.1,2.8,3.1,1.7c0.9-0.5,1.7-1.1,2.5-1.6
	C447,125.3,447,125.3,450.7,125.7z M509.6,130.2c-3.5-1.7-8-1.5-11-5.1c1.7-2.2,3.7-1.5,5.6-1.5c2.5-0.1,5.6,0.1,7.3-1.3
	c2.1-1.6,3.9-2.3,6.4-2.4c1.6-0.1,3.2-1,4.7-1.6c0.1-1.8,0.2-3.3,0.4-5c1.3,0,2.4,0.1,3.4,0c1-0.1,1.9-0.4,3.4-0.8
	c-1.4-2.4-2.4-4.4-3.8-6.9c-3.5,1-6.9,2.1-10.7,3.2c-0.6-1.6-1.1-3.1-2-5.5c-2.1,6.5-4.2,11.5-10.9,12.2c-1,0.1-1.8,1.8-2.9,2.5
	c-1,0.6-2.2,0.8-4,1.5c0.2-3.5,0.3-6.3,0.4-9.3c-3.9,1.8-7.3,3.2-10.4,4.9c-2.4,1.4-3.5,3.7-2.9,6.8c3.8-1,5.7-5.3,10.3-4.6
	c-0.1,3.9-3.6,5.6-4.6,8c0.3,2.9,0.5,5.3,0.7,7.7c2.9,2.2,6,4.5,9.6,7.3c0.6-3.6,2.6-5.3,5.8-6.2
	C506.3,133.3,507.8,131.4,509.6,130.2c2.5,0.1,4.8,0.1,5.5-2.6c-0.4-0.5-0.8-1-1.1-1.5C512.5,127.4,511.1,128.8,509.6,130.2z
	 M133.4,188.2c0.3,0.4,0.5,0.8,0.8,1.2c7-1.1,13.8-3.6,20.5-6c18.2-6.3,36.3-13.3,54.7-19c18.4-5.7,37-11.2,55.9-15
	c20.6-4.1,41.7-5.7,62.8-6.3c10.3-0.3,20.6,0,30.9-0.1c8.3-0.1,16.1-2.3,22.3-8.2c1.5-1.5,3.2-3.3,3.8-5.2c2.5-7.9-1.3-15.6-9-18.8
	c-2-0.8-4.1-1.5-6.3-1.9c-14.1-2.7-28.2-4.3-42.5-2.5c-4.4,0.5-8.7,0.9-13.1,1.6c-19.9,3.3-40.1,5.6-59.6,10.4
	c-27.4,6.7-53.3,17.7-77.7,32c-15.1,8.8-28.8,19.3-40,32.9C135.7,184.7,134.6,186.5,133.4,188.2z M458.4,87.7c0-1.8,0.3-3.4-0.1-4.7
	c-0.4-1.3-2.1-2.2-2.5-3.5c-0.5-1.8-0.3-3.8-0.2-5.8c0.1-1.4,0.5-2.8,0.8-4.1c-3.5-1.1-6.4-2.1-9.2-3c-2,2.7,0.2,3.8,1.1,5.4
	c2,3.3,4.5,6.6,5.4,10.3c1,4,2.3,6.9,5.8,7.9c0.1,2.3-0.3,4.3,0.5,5.7c1.7,3.1,0.6,5.6-1.1,7.9c-1.5,2-3.5,3.8-5.1,5.5
	c2.1,1.7,4.1,3.3,6.7,5.4c2.8-3.1,5.5-1.1,8.5,0.6c1.8,1,3.9,2.4,6.5,1.6c-1.9-4-7.3-3.5-8.9-8.2c4.2,0.1,7.1,2.1,10,3.9
	c2,1.2,4.5,2.5,5.7,0.1c1-2.1,0.4-5,0.5-7.5c-1.6,0.1-3.3,0.3-4.7,0.4c-0.6-1.5-1-2.6-1.4-3.7c-3.7,1.3-6.9,2.5-10.2,3.7
	c-1.4-5,4.7-3.5,5.1-7.5c-2.4-1.2-4.9-2.4-8.8-4.3c5.3-3,6.5-7.3,6.3-12.4C466.1,84.3,464,88.2,458.4,87.7z M547.4,128.7
	c7.7,0.6,14.2,6.1,21.6,3.2c0-0.5,0-1,0.1-1.4c-1.6,0.3-3.1,0.6-4.9,0.9c-0.8-1.6-1.5-3.1-2.4-4.8c-2.9,0.7-5.5,1.3-9,2.1
	c1.1-2.5,1.8-4.2,2.6-5.9c-7.8-2.8-10.4-1.7-16.6,7.2c2.2,1.1,4.3,2.1,6.5,3.2C546.2,131.1,546.7,130,547.4,128.7z M484.6,202.4
	c0-1.9,0.5-4.2-0.1-6.2c-0.7-2.4-2.2-4.5-3.5-7c1-1.3,2.1-2.6,3.7-4.6c-2.5,0.7-4.1,1.1-6.6,1.8c1.4-2.6,2.3-4.2,3.4-6.4
	c-4.3-3.2-8.4-6.2-13.2-9.7c0.7,6.1,3.3,9.8,7.7,11.9C475.8,189.9,480,199.1,484.6,202.4z M421.9,130c0.1-0.2,0.2-0.5,0.3-0.7
	c-3.9-0.5-7.8-0.9-11.6-1.6c-5.4-1-11.4,0-15.5-5.4c-1.1-1.4-4.6-2-5.7,0.5c-0.7,1.6-0.2,4.3,0.8,5.8c0.7,1,3.2,1.1,4.9,1.1
	c8.1,0.2,16.2,0.2,24.2,0.3C420.2,130.2,421.1,130.1,421.9,130z M540.2,116c-2.5-1.5-4.3-2.6-6.4-3.9c-4,5-8,10.2-12.1,15.3
	c-1.2,1.6-1.7,3,0.1,3.9c3.3-1.7,6.3-3.3,9.2-4.8c-0.7-1.1-1.6-2.2-2.6-3.8C532,120.7,535.1,118.9,540.2,116z M477.5,153.6
	c4,0.3,7.6,0.6,11.2,0.9c2.5-7.3-0.5-9-13.7-7.8C475.8,148.9,476.6,151.1,477.5,153.6z M543,185.5c1.9-3.7,1.9-3.5,7.3-2.7
	c1.7,0.3,3.5-0.2,5.2-0.4c0-0.5,0-0.9-0.1-1.4c-7.7-1.5-15.3-3.1-24.1-4.9C535.7,179.7,539.3,182.6,543,185.5z M520.1,140.8
	c-6.2-3-15.4-1.3-18.9,2.8C507.9,146.8,513.4,144.5,520.1,140.8z M496.6,197.7c-2.5,3.3-4.6,6.1-7,9.2c4.2,1.3,8.1,2.6,12.9,4.1
	C500.3,206.2,498.5,202,496.6,197.7z M527.7,172.8c2.4-2.8,4.1-4.8,6.1-7.1c-1.6-1.1-2.9-2-4.3-3c-1.5,2-2.8,3.6-3.8,4.9
	c-3.6-0.1-4.3-4.9-9.3-3.6C520.6,167.3,523.9,169.8,527.7,172.8z M523.7,139.5c-1.5,5.2-1.5,5.2,3.7,8.6c2.5-1.3,5.2-2.7,8-4.1
	C531.4,142.4,527.8,141,523.7,139.5z M497.9,180c-0.3,2.2,0,4.8-1.1,6.5c-2.4,3.8-0.4,5.8,2.2,8.2C502.5,184,502.3,182.3,497.9,180z
	 M541.6,203.1c0.2-7.7,5.6-9.3,12-9.8c-3.5-3.2-7.4-3.5-11.1-0.6C538.7,195.6,540.5,199.5,541.6,203.1z M528.6,183
	c-3.4,4.7,0.1,9.1,0.5,13.5c0.1,0.7,1.8,1.1,3.2,1.9C534.4,192,528.5,188.3,528.6,183z M527.2,136.7c4.4,3.6,10.9,4,18.4,1.6
	C539.5,134.5,533.1,137.9,527.2,136.7z M448.8,134.4c1.4,3.2,3.6,3.2,6,1.9c2.5-1.3,3-3.3,1.6-5.8
	C452.5,129.8,450.4,131.7,448.8,134.4z M437.8,185c3.1,0.8,5.3,1.3,7.5,1.9c1.4-4.5-2.2-5.7-3.7-8.9
	C440.2,180.5,439.2,182.3,437.8,185z M459.9,198c-4.5,6-4.5,6-0.9,10.5C457.4,204.8,464.6,202.1,459.9,198z M486.2,140.2
	c1.4,1.1,2.6,2.5,4.1,3.2c1.7,0.9,4-1.2,3-2.6c-1.3-1.9-3.5-3.2-5.8-5.1C487,137.7,486.6,138.9,486.2,140.2z M484.8,213.1
	c0.3,2.5-0.8,5.7,3.4,6.3c2.8,0.4,3.8-1.2,3.8-2.6C489.2,215.3,487.1,214.3,484.8,213.1z M552.1,205.1c-1.5-1.3-2.9-2.5-4.3-3.7
	c-0.3,0.2-0.7,0.4-1,0.6c1.3,3,2.6,6,4.2,9.6C551.5,208.9,551.8,207.2,552.1,205.1z M462.6,115.4c-0.8,2.4-1.3,3.9-1.8,5.3
	c1.1,0.2,2.7,1.1,3.4,0.6C466.4,119.9,465.3,118.2,462.6,115.4z M431.5,144.3c6.3-1.5,6.3-1.5,3.1-5.7
	C433.5,140.7,432.5,142.5,431.5,144.3z M485.1,240c-6.5,1.1-6.5,1.1-5.5,6C481.4,244,482.7,242.6,485.1,240z M499.6,165.2
	c-2.2-1-3.3-2-4.2-1.9c-0.9,0.2-1.6,1.5-2.5,2.3c0.7,0.6,1.4,1.9,2,1.8C496.2,167.2,497.3,166.3,499.6,165.2z M487.4,164.4
	c-1.6-2,0.3-6.3-4.3-6.8C482,161.6,485.1,162.8,487.4,164.4z M516.9,186.3c-0.3,3.5,1.4,5,4.3,6.4
	C521.9,188.8,520.6,187.1,516.9,186.3z M466.3,179.4c-0.4-0.1-0.9-0.2-1.3-0.3c-0.7,1.6-1.5,3.2-2.7,5.7c2.5-0.3,3.9-0.4,5.7-0.6
	C467.4,182.2,466.8,180.8,466.3,179.4z M488.9,231.7c0.4-0.1,0.9-0.2,1.3-0.3c0.1-3.5,0.1-3.5-3.6-7
	C487.6,227.5,488.2,229.6,488.9,231.7z M482.1,167.1c-1.3-0.9-2.1-1.7-3.1-2.2c-0.2-0.1-1.4,1.4-1.3,1.5c0.6,1,1.5,1.8,2.4,2.5
	C480.1,169,481.1,168,482.1,167.1z M413.4,122.4c0,0.2,0.1,0.5,0.1,0.7c2.5-0.4,5-0.7,7.5-1.1c-2-0.6-4-0.5-5.9-0.3
	C414.5,121.8,414,122.2,413.4,122.4z M481.3,172.8c1.4,3.4,1.4,3.4,5.1,3.3C484.3,174.8,482.8,173.8,481.3,172.8z M473.6,122.3
	c1.9,2.3,3.3,2,5-1.2C476.3,121.7,475,122,473.6,122.3z M425.5,134.3c4.4,2.6,4.4,2.6,7.8,1.6C430.6,135.3,428.6,134.9,425.5,134.3z
	 M482.9,129.6c0-0.5,0.1-1,0.1-1.5c-1.1,0.1-2.1,0.2-3.2,0.2c0,0.3,0,0.7,0,1C480.8,129.4,481.8,129.5,482.9,129.6z M464.3,198.9
	c0.3-0.1,0.6-0.2,1-0.3c-0.1-0.8,0-1.6-0.3-2.3c-0.3-0.7-1-1.2-1.6-1.8c-0.3,0.2-0.5,0.4-0.8,0.6
	C463.2,196.4,463.7,197.7,464.3,198.9z M514.5,133.7c0.3,0.4,0.6,0.7,1,1.1c0.8-0.9,1.5-1.8,2.3-2.6c-0.2-0.2-0.4-0.4-0.6-0.6
	C516.3,132.2,515.4,132.9,514.5,133.7z M471.5,216.1c0.4-0.1,0.8-0.2,1.2-0.3c-0.3-1.1-0.6-2.2-0.9-3.3c-0.3,0.1-0.7,0.2-1,0.3
	C471,213.8,471.2,215,471.5,216.1z M443.3,170.3c-0.8-0.8-1.3-1.4-2-1.8c-0.1-0.1-1.2,0.8-1.1,1c0.3,0.7,0.8,1.3,1.4,1.8
	C441.8,171.4,442.5,170.8,443.3,170.3z M471.5,223.7c-0.5,0.9-0.8,1.4-0.9,1.9c-0.1,0.3,0.4,0.6,0.6,0.9c0.4-0.4,1-0.7,1.1-1.1
	C472.4,225.1,471.9,224.6,471.5,223.7z M431.7,125.2c0.1,0.1,0.1,0.3,0.2,0.4c1,0,1.9,0,2.9,0c0-0.2,0-0.4,0-0.6
	C433.7,125.1,432.7,125.2,431.7,125.2z M445.9,144.1c-0.4,0.5-0.8,0.8-0.8,1c0.1,0.4,0.4,0.8,0.7,1c0.2,0.1,0.6-0.3,1-0.4
	C446.5,145.2,446.2,144.7,445.9,144.1z M516.7,182.5c-0.5-0.4-0.9-0.8-1.4-1c-0.2-0.1-0.5,0.4-0.8,0.7c0.4,0.4,0.8,0.8,1.2,1.1
	C515.8,183.5,516.3,182.9,516.7,182.5z"/>
<path id="XMLID_718_" d="M514.9,501.9c0.9,2,2.4,2.3,4.3,1.2c3.8-2.1,7.7-4.2,11.6-6.2c2-1,4.1-1.9,6.2-2.9c0.3,0.5,0.5,1,0.8,1.5
	c-3,1.8-5.8,4-9,5.5c-5.1,2.3-9.7,5.4-15.9,5.2c-3.4-0.1-7.5,1.7-9.1,6.3c-2,5.7-7.4,8.2-12.4,10.2c-8.5,3.4-15.9,8.5-22.9,14.2
	c-11.7,9.5-25.2,16.1-38.5,22.8c-10.6,5.3-21.6,9.7-32.6,14.1c-15.3,6-31.6,7.3-47.8,8.7c-18,1.5-36,2.1-53.9,0.1
	c-4.1-0.5-8.3-0.9-12.3-2.2c-25.6-8-51.7-14-78.3-17.4c-14.4-1.8-28.8-3-43.2-4.3c-3.1-0.3-5.5-1.2-7.4-3.6c-2.4-3.1-5-6.1-7.2-9.4
	c-1.8-2.6-3.8-4.4-7-3.8c-6.9,1.3-11-2.4-13.4-8c-2.3-5.2-5.7-7.2-11.2-6.9c-2.8,0.2-5.7-0.3-8.5-1.1c-4.4-1.1-6.6-6.7-4.2-10.5
	c1.9-3.1,4.1-6,6.4-9.3c0.6,0.1,1.7,0,2.7,0.3c2.6,0.9,4.8,0.5,6.3-2c2.3-3.7,5.4-3.9,9.1-2.6c3.1,1.1,6.4,1.7,9.5,2.9
	c3.5,1.3,6.4,0.9,8.9-1.9c3.6-4.1,7.7-5.1,12.9-2.7c6.4,3.1,12.5,1.8,18.6-1.8c5.3-3.1,11.1-5.2,16.6-7.9c3.6-1.8,6.2-1.5,9.3,1.4
	c7.2,6.7,14.8,13.2,22.6,19.1c16.3,12.4,34.1,22.4,53.2,30c12.8,5.1,26.2,7.3,39.9,7.9c24.9,1.2,49.7-0.7,74.1-5.3
	c21.5-4,40.7-13.7,57.7-27.6c5.3-4.3,10.3-8.9,15.1-13.7c2.8-2.7,5.1-6,7.2-9.3c2-3.1,4.3-5.5,8.1-6.1c1.4-0.2,3.5-0.9,4-1.9
	c1.7-4,5.3-5.7,8.1-8.5c2-1.9,3.1-4.7,4.3-7.2c1.8-4,3.7-7.9,6.7-11c0.4,0.2,0.8,0.4,1.2,0.6c-2,4-4,8-6.2,12.4
	c6,0.8,5.7-5.7,9.4-6.6c2.5,3.1-2.1,3.9-1.7,6.8c2-2,3.7-3.7,5.5-5.4c0.4,0.3,0.7,0.5,1.1,0.8c-1.7,2.5-3.5,5-6,8.6
	c2.4-1.1,3.4-1.5,5-2.3c-1.6,3.7-3.1,6.8-4.2,10c-1,3.1-1.5,6.4-2.3,10.1c4.8-2.8,5.6-8.5,9.7-13.7c-0.5,3.3-0.7,5.2-1,7
	c0.3,0.2,0.6,0.3,1,0.5c1.2-1.5,2.5-3,4.1-5c0.6,1.9,1,3.4,1.4,4.8c-2.4,2.5-4.6,4.8-7.9,8.3c5.7-1.9,10-3.4,14.6-4.9
	c0,1.2,0.1,1.8,0,1.9c-2.7,1.3-7,1.9-7.8,3.9C518.8,499,517.3,500.6,514.9,501.9c-0.3-0.7-0.5-1.4-0.7-2.1c-0.7,0.4-1.4,0.8-2.8,1.5
	C513.2,501.6,514.1,501.7,514.9,501.9z M505.7,481.4c-0.4-1.5-1.4-2.6-2.4-1c-1,1.6-1,3.8-1.5,5.8
	C506.3,487.2,505.2,483.7,505.7,481.4z M186.7,513.8l-0.1-0.1c-1,0.7-1.9,1.4-3.1,2.3c4,4.5,8,9,12.1,13.5c-0.3,0.3-0.6,0.5-0.9,0.8
	c-3-2.8-6.1-5.6-9.1-8.3c-0.3,0.3-0.6,0.6-0.8,0.9c4.5,4.4,8.8,9.2,13.7,13.2c17.5,14.6,36.7,25.8,58.5,33.4
	c23.8,8.4,47.9,12.5,72.9,11.1c9.9-0.5,19.7-0.9,29.6-1.6c12.1-0.8,23.9-3,35.4-7.1c26.2-9.3,50.6-22.2,73.3-38.2
	c6.9-4.9,14.6-8.8,21.9-13.2c2.3-1.4,4.5-2.7,6.6-4.2c4.8-3.6,6.2-8.9,4.2-14.6c-2.1-5.9-6.4-9.5-12.2-11c-4.4-1.1-9.1-1.7-12.7,2.8
	c-4.2,5.3-8.5,10.6-13.2,15.4c-16.3,16.7-36.2,27.6-58.3,34.5c-6.9,2.1-14.2,2.9-21.3,3.9c-10.2,1.4-20.4,3.1-30.7,3.6
	c-12.9,0.6-25.9,0.4-38.8,0.1c-15.1-0.4-29.6-3.9-43.3-10.3c-7.9-3.7-15.4-8.3-23-12.8c-7.6-4.4-15.1-8.9-22.3-13.9
	c-6.8-4.7-13.2-10.1-19.8-15.1c-0.6,0.7-1.2,1.3-2.4,2.8c-2.2-2.5-3.9-4.6-5.7-6.6c-0.2,0.2-0.4,0.4-0.7,0.6
	c2.2,2.9,4.4,5.8,6.6,8.7c-0.4,0.3-0.7,0.6-1.1,0.9c-2.2-2.4-4.4-4.8-6.6-7.1c-1.3-1.4-2.7-3.2-5-1.4l0.1-0.1
	c-1.1,0.5-2.1,1-3.5,1.7c2.4,3.1,4.4,5.8,6.4,8.5c-0.3,0.3-0.6,0.5-0.8,0.8c-2.1-2.1-4.1-4.4-6.4-6.3c-0.8-0.7-2.2-0.7-3.3-1
	c-0.3,0.3-0.6,0.5-0.9,0.8c-0.7,0.5-1.3,1-2,1.6c0.4,1.4,0.7,2.7,1.1,4.1C183.1,509,184.9,511.4,186.7,513.8z M155,507.2
	c-2.1-0.7-4.2-1.4-6.3-2.1c-0.4,0.5-0.8,1.1-1.2,1.6c1.7,1,3.5,2,5.2,3c-0.2,0.2-0.5,0.5-0.7,0.7c-2.1-0.8-4.2-1.6-6.3-2.4
	c4.4,4.7,10.9,6,14.4,11.4c-3-1.2-5.8-2.9-8.6-4.5c-3-1.6-6-3.1-9.6-4.9c0.5,1.7,0.7,2.5,0.9,3.3c-1.1,0.1-2.1,0.2-4,0.3
	c6.8,3.6,14.1,4,19,9.6c-6.4-2.4-12.9-4.8-19.3-7.3c-0.2,0.4-0.3,0.9-0.5,1.3c7.3,2.9,14.9,5.1,21.8,8.7c8.1,4.2,16,2.2,24.1,1.7
	c0-0.9,0.2-1.5,0-1.7c-5.1-6.3-10.2-12.6-15.6-18.7c-1.3-1.5-3.9-1.9-5.8-2.8c-0.1,0.3-0.3,0.6-0.4,0.9c0.7,1.1,1.5,2.2,3,4.5
	c-5-2.9-8.6-5-12.2-7.1c-0.2,0.3-0.4,0.6-0.6,1c1,1.1,1.9,2.2,2.9,3.3L155,507.2z M150,537c8.7,5.8,16.7-0.4,24.3,1.9
	c-2.9,1-5.9,1.2-8.7,2c-2.5,0.7-6-0.8-8.3,3.6c3-0.3,5.1-0.3,7.2-0.6c2.4-0.3,4.7-0.8,7.1-1.2c2.5-0.4,2.5-0.3,6.2,1
	c-6.8,1.4-13.7,1.1-18.5,6.5c3.2,0.8,6.5-1.5,9.8,1c-3.2,0.5-6.5,0.9-9.7,1.4c4.5,0.8,8.8,1.2,13.1,0.6c5-0.7,8.7,2.5,13.1,3.3
	c15.9,2.8,31.8,5.3,47.7,7.9c-15.7-8.6-29.6-19.5-43-31.1c-1.1-0.9-2.8-1.6-4.2-1.5c-10.5,0.9-20.9,1.9-31.3,3.1
	C153.4,535,152.2,536,150,537z M127.9,523.7c-0.1,0.4-0.2,0.9-0.3,1.3c4,0.8,8.1,1.5,13.3,2.5c-4.5,1.5-7.8,2.7-11.9,4.1
	c12.6,1.9,25,1.1,31.2-1.8C150.1,522.4,138.9,523.7,127.9,523.7z M133.9,520.3c-6.5-4.1-13.8-3.9-21.2-3c3,0.4,6.1,0.9,9.1,1.3
	c0,0.4-0.1,0.9-0.1,1.3c-3.7,0.7-7.8-2.7-12.3,1.1c4.3,1,7.7,2.6,10.9,2.3C124.8,523.1,129.3,521.4,133.9,520.3z M123.6,510.6
	c11.8,3.2,11.8,3.2,14.5-2.8c-5.4,2.1-9.9-0.8-14.7-1.6c-0.2,0-0.6,0.4-1,0.7c1.3,0.8,2.4,1.4,3.7,2.2
	C125.2,509.7,124.7,510,123.6,510.6z M131.9,534.3c-0.1,0.5-0.2,0.9-0.3,1.4c1.9,0.3,3.7,0.6,6.5,1c-1.7,0.7-2.5,1-3.5,1.5
	c6.6,0.6,6.6,0.6,6.7-3.9C138.3,534.3,135.1,534.3,131.9,534.3z M114.3,511.4c-1.2-1-1.9-2-2.7-2.1c-0.6-0.1-1.3,1.1-2,1.7
	c0.8,0.6,1.4,1.4,2.3,1.7C112.4,512.9,113.2,512.1,114.3,511.4z M500.9,476.8c-4.1,1-4.1,1-4.5,4.3
	C497.7,479.9,498.9,478.8,500.9,476.8z M496.9,484.5c-0.2-0.6-0.5-1.2-0.7-1.8c-1.1,0.5-2.1,1-3.2,1.6c0.2,0.4,0.4,0.9,0.6,1.3
	C494.7,485.2,495.8,484.9,496.9,484.5z"/>
<path id="XMLID_704_" class="st0" d="M133.4,188.2c1.2-1.7,2.3-3.5,3.6-5.1c11.2-13.5,24.9-24.1,40-32.9
	c24.4-14.2,50.3-25.3,77.7-32c19.6-4.8,39.7-7.1,59.6-10.4c4.3-0.7,8.7-1.1,13.1-1.6c14.3-1.8,28.5-0.1,42.5,2.5
	c2.1,0.4,4.3,1.1,6.3,1.9c7.7,3.3,11.5,11,9,18.8c-0.6,2-2.3,3.7-3.8,5.2c-6.2,5.9-14,8.1-22.3,8.2c-10.3,0.2-20.6-0.2-30.9,0.1
	c-21.1,0.7-42.2,2.2-62.8,6.3c-18.9,3.8-37.5,9.3-55.9,15c-18.4,5.7-36.5,12.7-54.7,19c-6.7,2.3-13.4,4.8-20.5,6
	C133.9,189,133.7,188.6,133.4,188.2z"/>
<g id="XMLID_842_">
	<path id="XMLID_703_" class="st1" d="M509.5,130.1c-1.7,1.3-3.2,3.3-5.2,3.8c-3.2,0.9-5.2,2.6-5.8,6.2c-3.6-2.7-6.7-5.1-9.6-7.3
		c-0.2-2.5-0.5-4.8-0.7-7.7c1-2.4,4.5-4,4.6-8c-4.6-0.6-6.5,3.6-10.3,4.6c-0.6-3.1,0.5-5.4,2.9-6.8c3.1-1.7,6.5-3.1,10.4-4.9
		c-0.1,3-0.3,5.8-0.4,9.3c1.8-0.6,3-0.8,4-1.5c1.1-0.7,1.8-2.4,2.9-2.5c6.7-0.7,8.8-5.7,10.9-12.2c0.9,2.4,1.5,4,2,5.5
		c3.8-1.2,7.3-2.2,10.7-3.2c1.4,2.5,2.5,4.5,3.8,6.9c-1.5,0.4-2.5,0.7-3.4,0.8c-1,0.1-2.1,0-3.4,0c-0.1,1.8-0.2,3.2-0.4,5
		c-1.5,0.5-3.1,1.5-4.7,1.6c-2.5,0.1-4.3,0.8-6.4,2.4c-1.7,1.4-4.8,1.2-7.3,1.3c-1.9,0-3.8-0.7-5.6,1.5
		C501.6,128.7,506.1,128.4,509.5,130.1L509.5,130.1z"/>
	<path id="XMLID_702_" class="st1" d="M458.4,87.7c5.6,0.5,7.7-3.5,10.6-6.4c0.2,5.2-1,9.4-6.3,12.4c3.8,1.9,6.4,3.1,8.8,4.3
		c-0.4,4-6.5,2.5-5.1,7.5c3.3-1.2,6.5-2.3,10.2-3.7c0.4,1.1,0.8,2.1,1.4,3.7c1.5-0.1,3.1-0.3,4.7-0.4c-0.1,2.5,0.5,5.4-0.5,7.5
		c-1.2,2.5-3.7,1.1-5.7-0.1c-2.9-1.7-5.8-3.8-10-3.9c1.6,4.7,7,4.3,8.9,8.2c-2.6,0.8-4.7-0.6-6.5-1.6c-3-1.7-5.7-3.7-8.5-0.6
		c-2.5-2.1-4.5-3.7-6.7-5.4c1.6-1.7,3.6-3.4,5.1-5.5c1.7-2.3,2.9-4.8,1.1-7.9c-0.8-1.4-0.3-3.5-0.5-5.7c-3.4-1-4.8-3.9-5.8-7.9
		c-0.9-3.7-3.4-6.9-5.4-10.3c-1-1.6-3.1-2.7-1.1-5.4c2.8,0.9,5.8,1.9,9.2,3c-0.3,1.3-0.7,2.7-0.8,4.1c-0.1,1.9-0.3,3.9,0.2,5.8
		c0.3,1.3,2,2.2,2.5,3.5C458.8,84.3,458.4,85.9,458.4,87.7z"/>
	<path id="XMLID_701_" class="st1" d="M452.7,124c1.9-0.3,3.9-1.1,5.6-0.7c7,2,6.9,2.2,11.6-3c-1.5,6.7,4.1,8.8,7.6,12.1
		c1.5,1.4,3.3,2.5,5.3,4.1c-2.3,1.6-3.8,2.7-5.4,3.7c-1.6,0.9-3.4,1.6-5.9,2.8c0.3-2.6,0.5-4.4,0.7-6.9c-3.4-0.5-6.6-0.9-10.1-1.5
		c-0.2-0.4-0.9-1.1-1-1.9c-0.4-3.4-2.2-4.9-5.6-5.2c-1.6-0.1-3.1-1.1-4.7-1.8C451.3,125.1,452,124.5,452.7,124z"/>
	<path id="XMLID_700_" class="st1" d="M455.5,150c4-1,8-2,12-3.2c2.8-0.8,5,0.6,4.6,2.9c-0.9,5.2,1.9,7.5,6.2,9.3
		c-3.6,1.4-3.6,1.4-8.4,0.6c0.4,3.4,5.7,4.8,3.7,9c-6.7-5.6-14.8-9.8-18-18.8L455.5,150z"/>
	<path id="XMLID_699_" class="st1" d="M503.1,148.6c3.1-0.3,6.1-0.7,9.2-1c3.3-0.3,5.9,0.4,9.1,2.2c3.8,2.2,9.1,2.1,13.8,2.5
		c3.2,0.3,6.5-0.3,10.2,0.6c-1.4,0.6-2.7,1.6-4.1,1.7c-2.1,0.2-4.4-0.2-6.5-0.2c-5.2-0.1-10.1,0.4-11.7,6.6c-4.6-0.7-5-5-7.9-7.5
		C510.1,154.8,506.2,152.7,503.1,148.6C503.1,148.5,503.1,148.6,503.1,148.6z"/>
	<path id="XMLID_698_" class="st1" d="M452.7,124c-0.7,0.6-1.3,1.2-2,1.7c-3.7-0.4-3.7-0.4-8-4.2c-0.8,0.5-1.6,1.1-2.5,1.6
		c-2,1.1-3.7-0.8-3.1-1.7c2.3-3.2-0.4-5.1-1.2-7.6c-0.7-2.3-0.7-4.7-1.1-7.4c2.2-0.8,4.1-1.6,6.4-2.4c0,3.5,0,6.5,0,9.9
		c2.2-0.4,3.9-0.6,5.6-0.9c0.1,0.3,0.5,0.8,0.3,1.1c-1,2.3-0.2,3.8,1.8,4.9C451,120.1,452.8,121.3,452.7,124z"/>
	<path id="XMLID_697_" class="st1" d="M547.4,128.7c-0.6,1.3-1.2,2.5-2.1,4.4c-2.2-1.1-4.3-2.1-6.5-3.2c6.2-8.9,8.7-10,16.6-7.2
		c-0.7,1.7-1.5,3.4-2.6,5.9c3.5-0.8,6.1-1.4,9-2.1c0.8,1.7,1.6,3.2,2.4,4.8c1.7-0.3,3.3-0.6,4.9-0.9c0,0.5,0,1-0.1,1.4
		C561.6,134.8,555.1,129.2,547.4,128.7z"/>
	<path id="XMLID_696_" class="st1" d="M484.6,202.4c-4.7-3.3-8.8-12.5-8.6-20.2c-4.5-2.1-7-5.8-7.7-11.9c4.8,3.5,8.9,6.5,13.2,9.7
		c-1.2,2.2-2,3.8-3.4,6.4c2.6-0.7,4.1-1.1,6.6-1.8c-1.6,1.9-2.7,3.3-3.7,4.6c1.3,2.5,2.9,4.6,3.5,7
		C485.1,198.2,484.6,200.5,484.6,202.4z"/>
	<path id="XMLID_695_" class="st1" d="M421.9,130c-0.9,0.1-1.7,0.2-2.6,0.2c-8.1-0.1-16.2-0.1-24.2-0.3c-1.7,0-4.2-0.1-4.9-1.1
		c-1-1.5-1.5-4.3-0.8-5.8c1.1-2.5,4.6-2,5.7-0.5c4.1,5.3,10.1,4.4,15.5,5.4c3.8,0.7,7.8,1.1,11.6,1.6
		C422.1,129.6,422,129.8,421.9,130z"/>
	<path id="XMLID_694_" class="st1" d="M540.2,116c-5.1,2.9-8.3,4.7-11.8,6.7c1.1,1.6,1.9,2.7,2.6,3.8c-2.9,1.5-5.9,3-9.2,4.8
		c-1.8-0.9-1.3-2.3-0.1-3.9c4.1-5.1,8.1-10.3,12.1-15.3C535.9,113.4,537.7,114.4,540.2,116z"/>
	<path id="XMLID_693_" class="st1" d="M477.5,153.6c-0.9-2.5-1.7-4.7-2.6-6.9c13.2-1.2,16.2,0.5,13.7,7.8
		C485.1,154.2,481.5,153.9,477.5,153.6z"/>
	<path id="XMLID_692_" class="st1" d="M455.6,149.9c-1.3-0.8-2.8-1.3-3.7-2.4c-3-3.4-5.7-7.1-8.7-10.5c-1.8-2.1-1.5-3.4,0.5-4.6
		c2.3,2.8,4.1,6,6.9,8c2.5,1.8,6,2.3,9.5,3.6c-1.9,2.4-3.2,4.2-4.6,5.9C455.5,150,455.6,149.9,455.6,149.9z"/>
	<path id="XMLID_632_" class="st1" d="M543,185.5c-3.6-2.9-7.2-5.8-11.6-9.3c8.8,1.8,16.5,3.3,24.1,4.9c0,0.5,0,0.9,0.1,1.4
		c-1.7,0.2-3.5,0.7-5.2,0.4C544.9,182,544.9,181.8,543,185.5z"/>
	<path id="XMLID_620_" class="st1" d="M520.1,140.8c-6.7,3.7-12.2,6-18.9,2.8C504.8,139.5,514,137.8,520.1,140.8z"/>
	<path id="XMLID_619_" class="st1" d="M496.6,197.7c1.9,4.3,3.7,8.5,5.9,13.3c-4.8-1.5-8.7-2.8-12.9-4.1
		C492,203.8,494.1,201,496.6,197.7z"/>
	<path id="XMLID_618_" class="st1" d="M527.7,172.8c-3.8-3-7.1-5.5-11.3-8.7c5-1.2,5.7,3.5,9.3,3.6c1-1.3,2.2-2.9,3.8-4.9
		c1.4,1,2.7,1.8,4.3,3C531.8,168,530.2,169.9,527.7,172.8z"/>
	<path id="XMLID_616_" class="st1" d="M523.7,139.5c4.1,1.6,7.7,2.9,11.7,4.5c-2.9,1.5-5.5,2.8-8,4.1
		C522.2,144.7,522.2,144.7,523.7,139.5z"/>
	<path id="XMLID_615_" class="st1" d="M497.9,180c4.5,2.3,4.6,3.9,1.1,14.6c-2.6-2.4-4.6-4.3-2.2-8.2
		C497.9,184.8,497.6,182.2,497.9,180z"/>
	<path id="XMLID_614_" class="st1" d="M541.6,203.1c-1.1-3.6-2.9-7.5,0.9-10.4c3.7-2.9,7.6-2.6,11.1,0.6
		C547.2,193.8,541.8,195.4,541.6,203.1z"/>
	<path id="XMLID_613_" class="st1" d="M528.6,183c-0.1,5.3,5.8,8.9,3.7,15.4c-1.3-0.8-3.1-1.3-3.2-1.9
		C528.7,192.1,525.2,187.8,528.6,183z"/>
	<path id="XMLID_612_" class="st1" d="M527.2,136.7c5.9,1.2,12.3-2.2,18.4,1.6C538.1,140.7,531.6,140.3,527.2,136.7z"/>
	<path id="XMLID_611_" class="st1" d="M448.8,134.4c1.6-2.7,3.7-4.6,7.6-3.8c1.4,2.4,0.9,4.5-1.6,5.8
		C452.4,137.6,450.2,137.6,448.8,134.4z"/>
	<path id="XMLID_605_" class="st1" d="M437.8,185c1.4-2.7,2.4-4.5,3.8-7c1.5,3.3,5.1,4.5,3.7,8.9C443,186.4,440.9,185.8,437.8,185z"
		/>
	<path id="XMLID_604_" class="st1" d="M459.9,198c4.7,4.1-2.5,6.8-0.9,10.5C455.4,204,455.4,204,459.9,198z"/>
	<path id="XMLID_603_" class="st1" d="M486.2,140.2c0.4-1.3,0.7-2.5,1.3-4.5c2.2,1.9,4.5,3.2,5.8,5.1c1,1.4-1.4,3.5-3,2.6
		C488.8,142.7,487.6,141.4,486.2,140.2z"/>
	<path id="XMLID_602_" class="st1" d="M443.8,164.4c-2.9-0.7-5.2-2-4.8-6c2.8-0.3,5.4-0.6,8.9-1C446.2,160.2,442.4,161,443.8,164.4
		L443.8,164.4z"/>
	<path id="XMLID_601_" class="st1" d="M484.8,213.1c2.3,1.2,4.4,2.3,7.2,3.7c0.1,1.4-1,3-3.8,2.6C484,218.8,485.1,215.6,484.8,213.1
		z"/>
	<path id="XMLID_600_" class="st1" d="M552.1,205.1c-0.4,2.2-0.6,3.9-1.1,6.4c-1.6-3.6-2.9-6.6-4.2-9.6c0.3-0.2,0.7-0.4,1-0.6
		C549.3,202.6,550.7,203.8,552.1,205.1z"/>
	<path id="XMLID_599_" class="st1" d="M462.6,115.4c2.7,2.8,3.8,4.5,1.5,5.9c-0.7,0.4-2.2-0.4-3.4-0.6
		C461.3,119.3,461.8,117.8,462.6,115.4z"/>
	<path id="XMLID_598_" class="st1" d="M431.5,144.3c1-1.8,2-3.6,3.1-5.7C437.8,142.9,437.8,142.9,431.5,144.3z"/>
	<path id="XMLID_597_" class="st1" d="M485.1,240c-2.4,2.6-3.8,4-5.5,6C478.6,241.1,478.6,241.1,485.1,240z"/>
	<path id="XMLID_596_" class="st1" d="M499.6,165.2c-2.3,1.1-3.4,2-4.6,2.2c-0.5,0.1-1.3-1.2-2-1.8c0.8-0.8,1.5-2.1,2.5-2.3
		C496.3,163.2,497.4,164.2,499.6,165.2z"/>
	<path id="XMLID_595_" class="st1" d="M487.4,164.4c-2.3-1.6-5.4-2.8-4.3-6.8C487.7,158.1,485.9,162.4,487.4,164.4z"/>
	<path id="XMLID_594_" class="st1" d="M516.9,186.3c3.7,0.8,5,2.5,4.3,6.4C518.3,191.3,516.6,189.8,516.9,186.3z"/>
	<path id="XMLID_593_" class="st1" d="M466.3,179.4c0.5,1.4,1,2.8,1.7,4.7c-1.8,0.2-3.2,0.4-5.7,0.6c1.2-2.5,1.9-4.1,2.7-5.7
		C465.5,179.2,465.9,179.3,466.3,179.4z"/>
	<path id="XMLID_592_" class="st1" d="M488.9,231.7c-0.7-2.1-1.3-4.2-2.3-7.3c3.7,3.5,3.7,3.5,3.6,7
		C489.7,231.5,489.3,231.6,488.9,231.7z"/>
	<path id="XMLID_591_" class="st1" d="M482.1,167.1c-1,0.9-1.9,1.9-2,1.8c-0.9-0.7-1.8-1.5-2.4-2.5c-0.1-0.2,1.2-1.6,1.3-1.5
		C480,165.4,480.8,166.2,482.1,167.1z"/>
	<path id="XMLID_590_" class="st1" d="M489.9,174.9c-1.2-0.9-2.6-1.7-3.6-2.8c-0.4-0.5,0.1-1.8,0.2-2.7c0.9,0.4,2.4,0.5,2.7,1.1
		C489.8,171.8,489.7,173.4,489.9,174.9L489.9,174.9z"/>
	<path id="XMLID_589_" class="st1" d="M413.4,122.4c0.6-0.2,1.1-0.7,1.7-0.7c1.9-0.2,3.9-0.3,5.9,0.3c-2.5,0.4-5,0.7-7.5,1.1
		C413.5,122.9,413.5,122.7,413.4,122.4z"/>
	<path id="XMLID_588_" class="st1" d="M481.3,172.8c1.5,1,3,2,5.1,3.3C482.7,176.3,482.7,176.3,481.3,172.8z"/>
	<path id="XMLID_587_" class="st1" d="M473.6,122.3c1.4-0.3,2.7-0.7,5-1.2C476.9,124.4,475.6,124.7,473.6,122.3z"/>
	<path id="XMLID_586_" class="st1" d="M425.5,134.3c3.1,0.6,5.2,1,7.8,1.6C429.9,136.9,429.9,136.9,425.5,134.3z"/>
	<path id="XMLID_585_" class="st1" d="M534.7,169.7c1.6-2.2,3.2-4.3,6.7-2.3C539.1,168.1,536.9,168.9,534.7,169.7
		C534.6,169.6,534.7,169.7,534.7,169.7z"/>
	<path id="XMLID_584_" class="st1" d="M509.6,130.2c1.5-1.4,2.9-2.7,4.4-4.1c0.4,0.5,0.8,1,1.1,1.5
		C514.4,130.2,512.1,130.3,509.6,130.2C509.5,130.1,509.6,130.2,509.6,130.2z"/>
	<path id="XMLID_583_" class="st1" d="M482.9,129.6c-1-0.1-2.1-0.1-3.1-0.2c0-0.3,0-0.7,0-1c1.1-0.1,2.1-0.2,3.2-0.2
		C482.9,128.6,482.9,129.1,482.9,129.6z"/>
	<path id="XMLID_582_" class="st1" d="M464.3,198.9c-0.6-1.2-1.1-2.4-1.7-3.7c0.3-0.2,0.5-0.4,0.8-0.6c0.5,0.6,1.3,1.1,1.6,1.8
		c0.3,0.6,0.2,1.5,0.3,2.3C465,198.7,464.6,198.8,464.3,198.9z"/>
	<path id="XMLID_581_" class="st1" d="M514.5,133.7c0.9-0.7,1.8-1.5,2.6-2.2c0.2,0.2,0.4,0.4,0.6,0.6c-0.8,0.9-1.5,1.8-2.3,2.6
		C515.2,134.4,514.9,134,514.5,133.7z"/>
	<path id="XMLID_580_" class="st1" d="M471.5,216.1c-0.2-1.1-0.5-2.3-0.7-3.4c0.3-0.1,0.7-0.2,1-0.3c0.3,1.1,0.6,2.2,0.9,3.3
		C472.3,215.9,471.9,216,471.5,216.1z"/>
	<path id="XMLID_579_" class="st1" d="M443.3,170.3c-0.8,0.5-1.5,1.1-1.7,1c-0.6-0.5-1.1-1.1-1.4-1.8c-0.1-0.1,1-1,1.1-1
		C442,168.9,442.5,169.5,443.3,170.3z"/>
	<path id="XMLID_578_" class="st1" d="M471.5,223.7c0.4,0.8,0.9,1.4,0.8,1.8c-0.1,0.4-0.7,0.7-1.1,1.1c-0.2-0.3-0.6-0.7-0.6-0.9
		C470.7,225.1,471,224.6,471.5,223.7z"/>
	<path id="XMLID_577_" class="st1" d="M534.6,169.6c-0.5,1.1-1,2.2-1.5,3.4c-0.4-0.3-0.8-0.6-1.3-1
		C532.8,171.3,533.8,170.5,534.6,169.6C534.7,169.7,534.6,169.6,534.6,169.6z"/>
	<path id="XMLID_576_" class="st1" d="M497.7,151.2c-0.7,0.6-1.3,1.2-2,1.8c-0.3-0.6-0.5-1.3-0.8-1.9
		C495.9,151.2,496.8,151.3,497.7,151.2C497.8,151.3,497.7,151.2,497.7,151.2z"/>
	<path id="XMLID_575_" class="st1" d="M431.7,125.2c1-0.1,2-0.1,3-0.2c0,0.2,0,0.4,0,0.6c-1,0-1.9,0-2.9,0
		C431.8,125.5,431.8,125.4,431.7,125.2z"/>
	<path id="XMLID_574_" class="st1" d="M445.9,144.1c0.3,0.6,0.6,1.1,0.9,1.6c-0.3,0.2-0.8,0.5-1,0.4c-0.3-0.2-0.7-0.6-0.7-1
		C445.1,144.9,445.5,144.6,445.9,144.1z"/>
	<path id="XMLID_573_" class="st1" d="M497.8,151.3c0.7-3,2.4-4.1,5.3-2.7c0,0,0.1-0.1,0.1-0.1C501.3,149.4,499.5,150.3,497.8,151.3
		C497.7,151.2,497.8,151.3,497.8,151.3z"/>
	<path id="XMLID_572_" class="st1" d="M516.7,182.5c-0.5,0.4-0.9,0.9-1,0.9c-0.5-0.3-0.8-0.7-1.2-1.1c0.3-0.2,0.7-0.8,0.8-0.7
		C515.8,181.8,516.2,182.2,516.7,182.5z"/>
	<path id="XMLID_571_" class="st1" d="M489.8,174.9c0.6,1.2,1.1,2.4,1.7,3.6c-0.3,0.1-0.6,0.2-1,0.3
		C490.4,177.5,490.1,176.2,489.8,174.9C489.9,174.9,489.8,174.9,489.8,174.9z"/>
	<path id="XMLID_570_" class="st1" d="M443.7,164.4c1.6,1.1,2.9,2.3,1.8,5.8C444.7,167.5,444.2,165.9,443.7,164.4
		C443.8,164.4,443.7,164.4,443.7,164.4z"/>
</g>
<path id="XMLID_567_" class="st2" d="M180.2,502.5c0.7-0.5,1.3-1,2-1.6c0.9,1.2,1.8,2.4,2.7,3.6c0.3-0.2,0.6-0.4,0.9-0.7
	c-0.9-1.2-1.8-2.5-2.8-3.7c1.1,0.3,2.5,0.3,3.3,1c2.3,2,4.3,4.2,6.4,6.3c4.5,6.4,10.3,11.4,15.9,16.7c0.3-0.3,0.7-0.6,1-1
	c-5.4-5.5-10.7-11-16.1-16.5c-2-2.7-4.1-5.4-6.4-8.5c1.3-0.7,2.4-1.2,3.5-1.7c0.1,2,0.9,3.5,2.7,4.2c0.5-0.4,0.9-0.9,1.4-1.3
	c-1.4-0.9-2.8-1.8-4.2-2.8c2.3-1.8,3.6,0,5,1.4c2.2,2.3,4.4,4.7,6.6,7.1c0.4-0.3,0.7-0.6,1.1-0.9c-2.2-2.9-4.4-5.8-6.6-8.7
	c0.2-0.2,0.4-0.4,0.7-0.6c1.7,2,3.5,4.1,5.7,6.6c1.3-1.5,1.8-2.1,2.4-2.8c6.6,5.1,12.9,10.4,19.8,15.1c7.2,5,14.8,9.4,22.3,13.9
	c7.5,4.4,15,9.1,23,12.8c13.7,6.3,28.2,9.9,43.3,10.3c12.9,0.3,25.9,0.5,38.8-0.1c10.3-0.5,20.5-2.2,30.7-3.6
	c7.2-1,14.5-1.8,21.3-3.9c22.1-6.9,42-17.8,58.3-34.5c4.7-4.8,8.9-10.2,13.2-15.4c3.6-4.4,8.3-3.9,12.7-2.8
	c5.8,1.5,10.1,5.2,12.2,11c2,5.7,0.6,11-4.2,14.6c-2.1,1.6-4.4,2.9-6.6,4.2c-7.3,4.4-15,8.3-21.9,13.2c-22.7,16.1-47,29-73.3,38.2
	c-11.5,4.1-23.3,6.3-35.4,7.1c-9.8,0.6-19.7,1-29.6,1.6c-25.1,1.4-49.1-2.8-72.9-11.1c-21.7-7.6-41-18.8-58.5-33.4
	c-4.9-4.1-9.1-8.8-13.7-13.2c0.3-0.3,0.6-0.6,0.8-0.9c3,2.8,6.1,5.6,9.1,8.3c0.3-0.3,0.6-0.5,0.9-0.8c-4-4.5-8.1-9-12.1-13.5
	c1.2-0.9,2.1-1.6,3.1-2.3c4.4,4,8.7,8,13.1,12c0.2-0.3,0.5-0.5,0.7-0.8C193.7,517.4,187,510,180.2,502.5z M205.8,507.8
	c3.5,5.9,7.3,9.7,12,11.3C214,515.5,210.2,511.9,205.8,507.8z"/>
<path id="XMLID_566_" class="st1" d="M150,537c2.2-1.1,3.4-2,4.6-2.2c10.4-1.2,20.9-2.2,31.3-3.1c1.4-0.1,3.1,0.6,4.2,1.5
	c13.4,11.6,27.3,22.5,43,31.1c-15.9-2.6-31.8-5.1-47.7-7.9c-4.4-0.8-8.1-3.9-13.1-3.3c-4.2,0.6-8.6,0.1-13.1-0.6
	c3.2-0.5,6.5-0.9,9.7-1.4c-3.2-2.4-6.6-0.2-9.8-1c4.8-5.4,11.7-5,18.5-6.5c-3.7-1.4-3.7-1.4-6.2-1c-2.4,0.4-4.7,0.9-7.1,1.2
	c-2.1,0.3-4.2,0.4-7.2,0.6c2.2-4.3,5.7-2.8,8.3-3.6c2.8-0.8,5.9-1,8.7-2C166.7,536.6,158.7,542.8,150,537z"/>
<path id="XMLID_565_" class="st1" d="M155.1,507c-1-1.1-1.9-2.2-2.9-3.3c0.2-0.3,0.4-0.6,0.6-1c3.6,2.1,7.3,4.2,12.2,7.1
	c-1.5-2.3-2.3-3.4-3-4.5c0.1-0.3,0.3-0.6,0.4-0.9c2,0.9,4.5,1.3,5.8,2.8c5.4,6,10.4,12.4,15.6,18.7c0.2,0.3,0,0.8,0,1.7
	c-8.1,0.6-16,2.5-24.1-1.7c-6.9-3.6-14.5-5.9-21.8-8.7c0.2-0.4,0.3-0.9,0.5-1.3c6.4,2.4,12.9,4.8,19.3,7.3c-4.9-5.6-12.2-6-19-9.6
	c2-0.2,2.9-0.2,4-0.3c-0.2-0.8-0.4-1.5-0.9-3.3c3.6,1.8,6.6,3.3,9.6,4.9c2.8,1.5,5.6,3.3,8.6,4.5c-3.5-5.4-10-6.7-14.4-11.4
	c2.1,0.8,4.2,1.6,6.3,2.4c0.2-0.2,0.5-0.5,0.7-0.7c-1.7-1-3.5-2-5.2-3c0.4-0.5,0.8-1.1,1.2-1.6c2.1,0.7,4.2,1.4,6.3,2.1
	c1.1,1.1,2.3,2.1,3.4,3.2c0.3-0.4,0.6-0.7,0.8-1.1C157.8,508.6,156.5,507.8,155.1,507z"/>
<path id="XMLID_564_" class="st1" d="M127.9,523.7c11,0.1,22.2-1.2,32.3,6c-6.2,3-18.6,3.8-31.2,1.8c4.1-1.4,7.4-2.5,11.9-4.1
	c-5.2-1-9.3-1.7-13.3-2.5C127.7,524.5,127.8,524.1,127.9,523.7z"/>
<path id="XMLID_563_" class="st1" d="M133.9,520.3c-4.6,1.1-9.1,2.7-13.6,3c-3.2,0.2-6.6-1.3-10.9-2.3c4.5-3.8,8.7-0.3,12.3-1.1
	c0-0.4,0.1-0.9,0.1-1.3c-3-0.4-6.1-0.9-9.1-1.3C120.2,516.5,127.4,516.2,133.9,520.3z"/>
<path id="XMLID_562_" class="st1" d="M123.6,510.6c1.1-0.6,1.7-0.9,2.6-1.5c-1.3-0.8-2.5-1.5-3.7-2.2c0.5-0.3,0.8-0.7,1-0.7
	c4.8,0.8,9.3,3.8,14.7,1.6C135.4,513.8,135.4,513.8,123.6,510.6z"/>
<path id="XMLID_561_" d="M180.2,502.5c6.7,7.5,13.5,14.9,20.2,22.4c-0.2,0.3-0.5,0.5-0.7,0.8c-4.4-4-8.7-8-13.1-12
	c0,0,0.1,0.1,0.1,0.1c-1.8-2.4-3.6-4.8-5.4-7.2C181,505.3,180.6,503.9,180.2,502.5z"/>
<path id="XMLID_560_" class="st1" d="M131.9,534.3c3.2,0,6.3,0,9.5,0c-0.1,4.5-0.1,4.5-6.7,3.9c1-0.4,1.7-0.7,3.5-1.5
	c-2.8-0.4-4.6-0.7-6.5-1C131.8,535.2,131.9,534.8,131.9,534.3z"/>
<path id="XMLID_559_" class="st1" d="M114.3,511.4c-1.2,0.7-1.9,1.5-2.4,1.3c-0.9-0.3-1.5-1.1-2.3-1.7c0.7-0.6,1.4-1.8,2-1.7
	C112.4,509.3,113.1,510.4,114.3,511.4z"/>
<path id="XMLID_557_" d="M193.7,506.8c5.4,5.5,10.7,11,16.1,16.5c-0.3,0.3-0.7,0.6-1,1c-5.6-5.3-11.4-10.4-15.9-16.7
	C193.1,507.3,193.4,507,193.7,506.8z"/>
<path id="XMLID_556_" d="M205.8,507.8c4.4,4.1,8.2,7.7,12,11.3C213,517.4,209.2,513.7,205.8,507.8z"/>
<path id="XMLID_555_" d="M183.1,500.2c0.9,1.2,1.8,2.5,2.8,3.7c-0.3,0.2-0.6,0.4-0.9,0.7c-0.9-1.2-1.8-2.4-2.7-3.6
	C182.5,500.7,182.8,500.4,183.1,500.2z"/>
<path id="XMLID_554_" d="M190.6,496.6c1.4,0.9,2.8,1.8,4.2,2.8c-0.5,0.4-0.9,0.9-1.4,1.3C191.6,500,190.8,498.6,190.6,496.6
	C190.7,496.5,190.6,496.6,190.6,496.6z"/>
<path id="XMLID_553_" d="M155.1,507c1.4,0.8,2.7,1.5,4.1,2.3c-0.3,0.4-0.6,0.7-0.8,1.1c-1.1-1.1-2.3-2.1-3.4-3.2
	C155,507.2,155.1,507,155.1,507z"/>
<g id="XMLID_345_">
	<path id="XMLID_550_" d="M52,280.7c-0.5-0.1-1-0.1-1.4-0.2c-1.3-0.5-1.6-1.7-0.6-2.7c0.5-0.4,1-0.8,1.5-1.1
		c28.6-17.2,57.7-33.1,89-43.7c16.7-5.6,33.7-9.2,51.1-10.4c3.8-0.3,7.5-0.3,9.7-0.3c9.1,0.2,16.6,0.6,23.9,2.9
		c2.6,0.8,5,1.9,7.4,3.3c4.7,2.9,7.4,7.2,7.5,13.2c0.1,4.7-0.8,9.3-3.1,13.4c-2.1,3.7-6.6,5.2-10.3,3.5c-1.5-0.7-1.7-1.5-0.8-3
		c2.8-4.4,3.5-9.3,2.9-14.5c-0.5-4.7-3.2-7.6-7.1-9.3c-3.6-1.6-7.5-2.2-11.3-2.5c-14.9-1-29.6,0.8-44.1,4
		c-22.9,4.9-44.6,13.8-65.9,24.1c-13.9,6.7-27.4,14.3-41.1,21.6C56.9,280,54.6,281.2,52,280.7L52,280.7z M110.6,474.4
		c-5.6-5.3-9.4-11.6-11.6-18.7c-2.4-7.7-3.7-15.4-4.2-23.1c-1-13.9-0.6-28,1.3-41.9l0.1,0c0.8-5.8,1.7-11.6,2.8-17.3
		c0.2-0.8,0.4-1.7-0.1-2.8c-1.8,0.9-3.6,1.8-5.4,2.7c-2,1.1-4,1.6-6.2,1.3c-0.7-0.1-1.7-0.2-1.9-1.4c-0.3-1.3,0.6-1.8,1.3-2.2
		c3.9-2.5,7.7-5.2,11.7-7.4c2.1-1.2,3.3-2.8,3.9-5.8c7.3-33.8,17.9-66,29.4-97.6c0.9-2.6,1.9-5.2,3.3-7.5c1.4-2.3,3.2-2.9,5.4-2.4
		c1.5,0.4,1.8,1.1,1.2,3c-6.1,19.2-11.4,38.7-16.6,58.3c-3.5,13.2-6.6,26.6-9.3,40.1c-0.2,0.8-0.5,1.6-0.1,2.9
		c5-1.9,9.9-3.9,14.8-5.8c1.7-0.7,3.5-1.2,5.2-0.3c1.1,0.6,1.3,1.6,0.5,2.7c-1.1,1.5-2.6,2.2-4.1,2.8c-5.4,2.1-10.7,4.8-16.1,7.2
		c-1.7,0.8-2.7,2-3.2,4.4c-1.9,10.4-3.5,20.9-4.9,31.4c-2.6,25.2-2.1,35.2-0.4,48.8c0.5,4,1.2,8,2.4,12c1.7,5.9,4.8,11.2,8.6,16.2
		c0.7,0.9,2.1,2,1.3,3.2c-0.8,1.2-2.3,0.7-3.6,0.4C113.9,477,112.2,475.9,110.6,474.4z"/>
	<path id="XMLID_547_" d="M203.9,407.4c-1.7-0.9-2.8-2.4-3.8-4l-1.4-3.6c-1.7-4.3-2.1-8.8-2.1-13.5c-0.2-9.2,0.7-18.7,3.1-28.2
		c0.7-3.1,1.9-6.2,3.6-9.3c0.7-1.4,0.9-2.6,1.4-4c0.7-2.6,1.9-5,3.6-7.4c2.4-3.1,6.2-4.5,10.2-5.2c2.8-0.5,5,0.5,6.6,1.9
		c2.4,2.4,3.6,5.2,4.3,8.3c3.1,14,1.2,28.5-2.6,43.2c-0.9,3.6-2.1,7.1-3.6,10.4c-0.7,1.9-1.7,3.8-2.8,5.7c-2.1,3.8-5.9,5.7-10.4,6.6
		C207.5,409,205.3,408.5,203.9,407.4z M215.1,395c4.7-14.7,7.1-28.9,6.2-43.2c-0.2-3.6-0.7-7.1-2.1-10.4c-0.6-1.3-1.3-2.5-2.7-3.5
		c-0.3-0.2-0.8-0.1-1,0.2c-1.6,2.2-2.2,4.1-2.9,6.1c-4.9,8.5-6.2,21.3-6.2,22.5c-0.7,6.6-0.7,12.8-0.5,19.2
		c0.2,4.3,1.2,8.5,3.1,12.6c0.7,1.2,1.2,2.4,3.1,3.6C213.4,399.5,214.3,397.2,215.1,395z"/>
	<path id="XMLID_543_" d="M267.3,412.9c-1.8-3.7-5.1-15.2-4.9-35.8c-2,4.1-4.2,8-6.7,11.9c-1.8,2.7-3.7,5.4-6.2,7.7
		c-2.1,1.9-4.8,2.7-8.2,2.4c-3-0.2-5.3-1.4-6.6-3.6c-1.3-2.1-2-4.3-2.4-6.6c-0.9-5.4-0.5-10.7,0.7-15.8c2.5-10.6,7.4-20.2,16.2-28.2
		c2.4-2.2,5.1-4,8-5.7c2.8-1.6,5.9-2.6,9.1-3c1.9-11.3,4.8-24.4,9.1-38.3c0.2-0.7,0.4-1.4,0.5-2.1c0.1-0.4,2.7-8.5,3.4-10.5
		c3.5-10.4,7.5-20.6,12.5-30.5c2-4,4.2-7.9,6.9-11.6c2.8-3.7,6.2-6.8,11.3-7.8c5.1-1,8.4,0.9,9.1,5.5c0.4,2.9,0.5,5.8,0.1,8.7
		c-0.8,6.5-2,13-3.7,19.4c-0.3,1-3.3,10.9-4.3,13.7c-4.8,14.3-10.5,28.4-17.2,42.2c-5.4,11.2-11.5,22.1-18.8,32.4
		c-0.4,0.6-0.7,1.3-0.9,1.9c-0.1,1.2-0.3,2.3-0.4,3.5c-0.2,1.7-0.3,3.4-0.4,5.1c-0.5,7.2-0.6,14.5-0.3,21.9c0.3,8.6,0.1,19.1,5.4,27
		c1.8,2.7,1.3,3.4-1.7,3.7C273,420.6,269.2,417,267.3,412.9z M247,388.2c4-5.4,7.2-11.2,9.8-17.2c2.9-6.9,5.2-13.9,7.5-21
		c0.3-2.7,0.7-5.5,1.2-8.6c-1.5,0.5-2.8,1.3-4.1,2.2c-3.9,2.6-7.1,5.7-9.6,9.2c-6.3,8.7-10.2,18.2-10.8,28.6
		c-0.2,3.4-0.1,7,2.1,10.8C245,391,246,389.6,247,388.2z M305.1,274.7c1.7-5.2,3.7-13.4,4.9-20.2c0.7-3.7,0.9-7.4,0.7-11.2
		c-0.1-1.2,0-2.5-1.9-3.2c-10.5,13-15.3,28.2-20.7,43.2l-2.9,9.6c-2.8,10-5,20.2-6.8,30.3c-1.2,6.7-0.7,6.2-1.7,12.9l0.8,0.2
		C287.9,317.3,301.1,286.8,305.1,274.7z"/>
	<path id="XMLID_541_" d="M354.7,440.4c-1.8-9.3-2.2-18.7-2.1-28.1c0.3-18.8,2.9-37.4,6.3-55.9c0.8-4.5,4.8-23.2,5.2-24.9
		c6.8-30.6,17.2-60.1,27.4-89.6c1.1-3.2,1.8-5.3,3.2-8.4c1.4-3.1,2-3.1,5.2-2.8c2,0.2,2.7,1.5,2.4,2.9c-0.2,1.2-0.5,2.4-0.8,3.6
		c-4.5,16.2-9,32.5-13.5,48.7c-3.3,11.8-6.3,23.6-9,35.6c-0.3,1.2-2.8,12.8-3.2,14.8c-5.2,25.5-10.2,51.1-10.5,77.2
		c-0.7,57.3,10.7,60.1,30.5,53.9c15.9-5,31.5-13.4,47-19.9c5.5-2.3,10.8-5.1,16.5-6.7c2.7-0.7,5.1,0,7.4,2.3c2.1,2,2.1,3.6-0.1,4.9
		c-3,1.8-6,3.5-9.1,4.8c-15.7,6.9-31.5,13.7-47.6,19.1c-3.6,1.2-7.2,2.3-10.9,3.1C367,483.7,358,457.8,354.7,440.4z"/>
	<path id="XMLID_539_" d="M455.9,414.2c-3-0.3-5-1.7-6-4.5c-0.9-2.5-1.4-5.1-1.6-7.8c-0.5-7.2,0-14.4,1.1-21.5
		c-3.7,6.6-7.8,12.9-12.6,18.2c-3.3,3.6-7,6.2-11.9,5.2c-4.2-0.9-6.4-3.6-7.4-9.1c0-0.1-0.1-0.3-0.1-0.4c-1.6-9.3,0.3-18.7,2.5-27.7
		c1.4-5.6,3.3-11.1,5.9-16.3c1.3-2.6,3.1-4.1,5.4-4.3c2.6-0.2,2.9,1,2.2,3.4c-1,3.7-2,7.4-2.8,11.1c-1.1,4.7-2,9.4-2.8,14.1
		c-0.7,4.6-1.4,9.3-1.2,14c0.1,1.2,0.2,2.4,0.4,3.6c0.1,0.3,1.1,3.5,1,3.6c1.5-1.2,1.8-1.6,3.1-3.2c6.6-8.1,11.9-17.7,16.7-27.7
		c3.2-6.7,6.3-12.7,10-22.1l0-0.1c0.6-1.8,1.3-3.6,2-5.3c0.8-1.8,2.3-2.6,4.3-2.6c3.2,0,4.1,1,3.1,4c-4.7,15.4-6.4,27.2-8.7,43.1
		c-0.8,5.9-1.4,11.8-1.2,17.8c0,0,0.1,5.7,0.7,7.4c2.3-2.5,4.8-6.5,6.3-9.1c5.9-10.3,10.2-19,15.5-29.6c1.7-3.5,3.4-7.2,5.6-10.5
		c1.5-2.3,3.5-3,5.8-2.4c1.3,0.4,2,1.2,1.5,2.7c-0.6,1.7-1.2,3.4-1.9,5.1c-5.5,12-10.1,22-16.3,33.7c-2.4,4.4-5,8.7-8.2,12.7
		C463.5,413.3,460.1,414.6,455.9,414.2l0-0.3L455.9,414.2L455.9,414.2z"/>
	<path id="XMLID_537_" d="M495.6,404.4c-7.9-0.1-12.4-3.7-14-10.8c-0.9-4.1-0.9-8.2-0.5-12.3c1.3-12.9,4.9-25.2,11.6-36.6
		c2.2-3.7,4.8-7.2,8.2-10.1c3-2.6,5.5-3.6,9.6-3.1c4.7,0.6,7.9,6.6,5.6,10.4c-0.8,1.3-2.2,1.3-3.5,1.3c-1.3-0.1-2.3-0.5-2.7-1.8
		c-0.4-1.3-0.3-2.7-1.7-4.2c-2.7,2.5-4.5,5.3-6,8.2c-5.1,9.4-8,19.5-9.5,29.9c-0.6,4.6-1,9.2-0.7,13.8c0.2,2.9,0.7,5.7,2.2,8.3
		c0.9,1.6,1.2,1.7,2.9,0.9c2.2-1.1,4.2-2.5,6-4c6-5.1,19.3-20,25.7-35.2c0.7-1.4,2.5-4.1,7.6-4.1c2.3,0,2.7,2.7,1.7,5
		c-7.9,18.1-21.9,34.8-27.3,38.8C506.1,402.1,502,404.5,495.6,404.4L495.6,404.4z"/>
	<path id="XMLID_533_" d="M530.5,419.1c-3.6-4.9-4-12.1-4.1-18c-0.1-1.3-0.7-1.4-2.8-1.7c-4.5-0.5-7.6-2.5-8.3-5.6
		c-0.7-3.8,1.7-7.4,5.7-9.3c1.7-0.7,3.3-1.2,5.2-1.2c1.4,0,1.8-1,2-2.3c1-9.5,2-18.9,3.7-28.4c2.8-15.3,6.2-30.4,10.7-45.3
		c5-16.6,11.1-31.8,18.5-47.4c3.6-7.4,11.9-24.4,22.8-24.4c4.3,0,6.2,1.2,6.4,5.7c0.2,2.8-0.2,5.5-0.7,8.3
		c-3.3,18.7-8.3,36.8-15.4,54.3c-9,22.3-20.4,43.2-33.9,62.9c-0.5,0.7-0.3,2.9-0.4,3.8c-0.1,1.3-0.3,2.6-0.4,3.8
		c-0.1,0.7-0.2,1.4-0.2,2.1c-0.2,2.1-0.5,4.3-0.7,6.4c-0.2,1.9,0.5,3.1,2.5,2.2c0.9-0.5,1.7-1.2,2.6-1.9c5.2-4.7,10.2-9.5,14.9-14.7
		c4.5-4.5,13.8-17.3,17.3-22.3c0.7-0.9,1.4-1.9,1.9-3.1c0.5-0.7,0.5-2.1,1.9-2.1c1.7-0.2,3.1,0,4.5,0.9c0.9,0.5,1.2,1.4,1.2,2.4
		c-0.2,2.1-0.9,4-1.9,5.7c-3.3,5.2-12.3,18-16.4,22.5c-5,5.6-10.6,10.7-15.9,16.1c-1,1.1-2.8,2.1-3,3.6c2.1,1.9,5,4,10.2,7.4
		c1.9,0.9,3.8,2.1,5.7,3.1c3.1,1.4,5.9,0.9,8.8-1.2c1.7-1.2,3.3-2.6,4.5-4.5c1.2-1.9,1.7-3.8,1.2-5.9c-0.5-2.1,0-2.6,1.7-3.1
		c4-0.9,7.6,1.9,7.4,5.9c0,1.9-0.9,3.6-1.9,5.2c-3.8,5.7-9.2,8.5-16.1,9c-6.4,0.5-12.3-1.4-17.8-4.7c-6.4-3.8-9.2-5-10.4-5.7
		c-1.7-1.4-3.8-0.5-4,1.7c-0.6,5-0.3,10.3,0.8,15.2c0.7,3,1.4,6.1,5.1,7.6c0.8,0.2,1.1,1,0.7,1.6c-0.1,0.7-0.9,0.8-1.8,1.1
		C537.7,425.1,532.7,422.7,530.5,419.1z M527,391.2c0-0.2,0-0.2-0.2-0.5c-0.9,0.7-1.4,1.7-0.7,2.6c0.2,0.2,0.2,0.2,0.5,0.2
		C527.7,393.1,527,391.9,527,391.2z M581.5,243.2c-0.2,0-0.7,0-0.9,0.2c-0.7,0.9-1.7,2.1-2.6,3.3c-5.9,8.5-10.2,18-14.2,28
		c-10,24-16.6,49.1-22.1,74.7c0,0.7-0.5,1.2,0,1.9C556.1,335.2,582.9,262.4,581.5,243.2z"/>
	<path id="XMLID_530_" d="M163.3,407.4c-1.7-0.9-2.8-2.4-3.8-4l-1.4-3.6c-1.7-4.3-2.1-8.8-2.1-13.5c-0.2-9.2,0.7-18.7,3.1-28.2
		c0.7-3.1,1.9-6.2,3.6-9.3c0.7-1.4,0.9-2.6,1.4-4c0.7-2.6,1.9-5,3.6-7.4c2.4-3.1,6.2-4.5,10.2-5.2c2.8-0.5,5,0.5,6.6,1.9
		c2.4,2.4,3.6,5.2,4.3,8.3c3.1,14,1.2,28.5-2.6,43.2c-0.9,3.6-2.1,7.1-3.6,10.4c-0.7,1.9-1.7,3.8-2.8,5.7c-2.1,3.8-5.9,5.7-10.4,6.6
		C166.9,409,164.8,408.5,163.3,407.4z M174.5,395c4.7-14.7,7.1-28.9,6.2-43.2c-0.2-3.6-0.7-7.1-2.1-10.4c-0.6-1.3-1.3-2.5-2.7-3.5
		c-0.3-0.2-0.8-0.1-1,0.2c-1.6,2.2-2.2,4.1-2.9,6.1c-4.9,8.5-6.2,21.3-6.2,22.5c-0.7,6.6-0.7,12.8-0.5,19.2
		c0.2,4.3,1.2,8.5,3.1,12.6c0.7,1.2,1.2,2.4,3.1,3.6C172.8,399.5,173.8,397.2,174.5,395z"/>
</g>
<path id="XMLID_558_" class="st1" d="M180.2,502.5c0.7-0.5,1.3-1,2-1.6c0.9,1.2,1.8,2.4,2.7,3.6c0.3-0.2,0.6-0.4,0.9-0.7
	c-0.9-1.2-1.8-2.5-2.8-3.7c1.1,0.3,2.5,0.3,3.3,1c2.3,2,4.3,4.2,6.4,6.3c4.5,6.4,10.3,11.4,15.9,16.7c0.3-0.3,0.7-0.6,1-1
	c-5.4-5.5-10.7-11-16.1-16.5c-2-2.7-4.1-5.4-6.4-8.5c1.3-0.7,2.4-1.2,3.5-1.7c0.1,2,0.9,3.5,2.7,4.2c0.5-0.4,0.9-0.9,1.4-1.3
	c-1.4-0.9-2.8-1.8-4.2-2.8c2.3-1.8,3.6,0,5,1.4c2.2,2.3,4.4,4.7,6.6,7.1c0.4-0.3,0.7-0.6,1.1-0.9c-2.2-2.9-4.4-5.8-6.6-8.7
	c0.2-0.2,0.4-0.4,0.7-0.6c1.7,2,3.5,4.1,5.7,6.6c1.3-1.5,1.8-2.1,2.4-2.8c6.6,5.1,12.9,10.4,19.8,15.1c7.2,5,14.8,9.4,22.3,13.9
	c7.5,4.4,15,9.1,23,12.8c6.5,3,9.4,3.9,16.3,6.1c0,0-1.7,3.7-4.4,5.9c-2,1.7-9.4,2.8-10.9,3.9c-1.4,0.9-2.7,3-3.8,4.2
	c-0.6,0.7-4.5,3.1-5.3,3.6c-2,1.2-5.5,5.1-5.5,5.1c-21.7-7.6-41-18.8-58.5-33.4c-4.9-4.1-9.1-8.8-13.7-13.2c0.3-0.3,0.6-0.6,0.8-0.9
	c3,2.8,6.1,5.6,9.1,8.3c0.3-0.3,0.6-0.5,0.9-0.8c-4-4.5-8.1-9-12.1-13.5c1.2-0.9,2.1-1.6,3.1-2.3c4.4,4,8.7,8,13.1,12
	c0.2-0.3,0.5-0.5,0.7-0.8C193.7,517.4,187,510,180.2,502.5z M205.8,507.8c3.5,5.9,7.3,9.7,12,11.3
	C214,515.5,210.2,511.9,205.8,507.8z"/>
</svg>
