
<svg width="96px" height="97px" viewBox="0 0 96 97" version="1.1" xmlns="http://www.w3.org/2000/svg" xmlns:xlink="http://www.w3.org/1999/xlink">
    <!-- Generator: Sketch 51.2 (57519) - http://www.bohemiancoding.com/sketch -->
    <desc>Created with Sketch.</desc>
    <defs></defs>
    <g id="Page-1" stroke="none" stroke-width="1" fill="none" fill-rule="evenodd">
        <g id="Custom-Preset-2" transform="translate(-11508.000000, -2791.000000)" fill="#F0C330">
            <g id="SCREEN-1-Copy" transform="translate(10594.000000, 2618.000000)">
                <g id="Group-10" transform="translate(914.000000, 173.000000)">
                    <g id="Group-3">
                        <path d="M91.9230701,51.4412665 C91.9230701,52.5013731 91.1767553,53.4213959 90.147801,53.6294289 L79.7293645,55.7348706 C79.0022985,55.8818477 78.4185015,56.4288883 78.2189482,57.1504797 C77.729202,58.9181447 77.0835168,60.6520812 76.2987046,62.3042817 C76.2987046,62.3042817 75.8576893,63.2329213 75.0455878,65.3255609 C74.6893645,65.9824036 74.7283492,66.785731 75.1467046,67.4044137 L80.4820142,75.2641218 C81.0738518,76.1390914 80.9712731,77.3247563 80.2376284,78.0827843 L76.2638619,82.1897741 C75.5307046,82.947802 74.3601868,83.0782843 73.4805929,82.4999772 L64.5742782,76.6467411 C63.9524711,76.2380609 63.1566944,76.2171345 62.514664,76.5918401 C61.6272731,77.1100761 60.7106437,77.5835051 59.7752528,78.0118807 C58.680268,78.4614289 57.5584812,78.8509061 56.4225624,79.1719416 C55.7086538,79.3738198 55.1672528,79.9634518 55.0220345,80.6983376 L52.9382985,91.2250533 C52.7326538,92.2644797 51.8218721,93.0190609 50.7726944,93.0190609 L45.0884711,93.0190609 C44.0395371,93.0190609 43.1287553,92.2647259 42.9231107,91.2250533 L40.839131,80.6983376 C40.6939127,79.9634518 40.152268,79.3738198 39.4388467,79.1719416 C37.0269076,78.4899873 34.6997604,77.5155558 32.5212426,76.2757284 C31.8745827,75.9079162 31.0785624,75.938198 30.4616284,76.3535254 L21.6203695,82.3091777 C20.747598,82.8970863 19.5756183,82.7796523 18.8334457,82.0302411 L14.8141157,77.968797 C14.0721868,77.2191396 13.9566944,76.0349518 14.5380548,75.1528426 L20.432065,66.2194873 C20.843598,65.5958807 20.8735675,64.7918147 20.5093036,64.138665 C19.2822579,61.9372081 18.3178721,59.5853274 17.6431919,57.1490025 C17.4431513,56.4274112 16.859598,55.8806168 16.1322883,55.7338858 L5.71433909,53.6284442 C4.68538477,53.4206574 3.93858274,52.5003883 3.93858274,51.4402817 L3.93858274,45.6968477 C3.93858274,44.6367411 4.68514112,43.7167183 5.71433909,43.5086853 L16.1322883,41.4032437 C16.859598,41.2562665 17.4431513,40.7092259 17.6431919,39.9881269 C18.3181157,37.5513096 19.2825015,35.1996751 20.5093036,32.9984645 C20.8733239,32.3455609 20.8433543,31.5412487 20.432065,30.9176421 L14.5385421,21.9852716 C13.9569381,21.1031624 14.0726741,19.9192208 14.814603,19.1693173 L18.833933,15.1081193 C19.5758619,14.3584619 20.7480853,14.2415203 21.6208569,14.8291827 L30.4621157,20.7845888 C31.0792934,21.2004086 31.8755574,21.2304442 32.5217299,20.862632 C34.7000041,19.6228046 37.0273949,18.6483731 39.439334,17.9664188 C40.1532426,17.7645406 40.6946437,17.1749086 40.8396183,16.4400228 L42.9233543,5.91330711 C43.128999,4.87388071 44.0397807,4.11929949 45.0889584,4.11929949 L50.7731817,4.11929949 C51.8223594,4.11929949 52.7328975,4.87363452 52.9387858,5.91330711 L55.0227655,16.4400228 C55.1679838,17.1749086 55.7096284,17.7645406 56.4230497,17.9664188 C58.8347452,18.6483731 61.162136,19.6228046 63.3406538,20.862632 C63.9873137,21.2304442 64.7830904,21.2001624 65.400268,20.7845888 L74.2415269,14.8291827 C75.1142985,14.2412741 76.2857909,14.3587081 77.0282071,15.1081193 L81.0475371,19.1693173 C81.789466,19.9189746 81.9054457,21.1031624 81.323598,21.9852716 L75.4298315,30.9186269 C75.0180548,31.5422335 74.9880853,32.3462995 75.3523492,32.9994492 C76.5793949,35.2006599 77.5437807,37.5522944 78.2189482,39.9891117 C78.4185015,40.710703 79.0022985,41.2574975 79.7293645,41.4042284 L90.147801,43.5096701 C91.1765117,43.7174569 91.9230701,44.6377259 91.9230701,45.6978325 L91.9230701,51.4412665 Z M90.9189685,39.6060355 L81.6627655,37.7354619 C81.055334,35.8043249 80.2858721,33.9268579 79.3638822,32.1298959 L84.6005117,24.1928832 C86.2205726,21.7376015 85.8977299,18.4410787 83.8325117,16.3543477 L79.8131817,12.2931497 C77.7474761,10.2064188 74.4851817,9.88045939 72.0552122,11.5169036 L64.200268,16.8080812 C62.4215878,15.8767335 60.5634761,15.0990102 58.6522477,14.4854975 L56.801202,5.13262944 C56.2286132,2.23961675 53.6933848,0.139591371 50.7726944,0.139591371 L45.0884711,0.139591371 C42.1680244,0.139591371 39.6330396,2.23961675 39.0599635,5.13336802 L37.2084305,14.486236 C35.2974457,15.0997487 33.439334,15.8772259 31.6606538,16.8088198 L23.806197,11.5176421 C21.3762274,9.88095178 18.1134457,10.2069112 16.0484711,12.2938883 L12.0291411,16.3550863 C9.96392284,18.4418173 9.64083655,21.7380939 11.2606538,24.1936218 L16.4972832,32.1306345 C15.5755371,33.9275964 14.8060751,35.8048173 14.1986437,37.7362005 L4.94219695,39.6067741 C2.07852183,40.1853274 -9.74619289e-05,42.7472107 -9.74619289e-05,45.6980787 L-9.74619289e-05,51.4415127 C-9.74619289e-05,54.3923807 2.07852183,56.9540178 4.94244061,57.5330635 L14.1986437,59.4036371 C14.8058315,61.3345279 15.5752934,63.2119949 16.4972832,65.009203 L11.2606538,72.9462157 C9.64083655,75.4014975 9.96367919,78.6980203 12.0291411,80.7845051 L16.0484711,84.8459492 C18.1134457,86.9326802 21.3759838,87.2586396 23.806197,85.6221954 L31.6611411,80.3310178 C33.4398213,81.2623655 35.2976893,82.0400888 37.2089178,82.6536015 L39.0602071,92.0067157 C39.6330396,94.8994822 42.168268,97 45.0887147,97 L50.7729381,97 C53.6936284,97 56.2286132,94.8997284 56.8016893,92.0062234 L58.6359228,82.7402614 C58.7324102,82.720566 58.8288975,82.6957005 58.9241665,82.6607411 C59.7494254,82.3569391 60.5644508,82.0181777 61.3677807,81.6513503 C61.9501157,81.4100812 62.5275777,81.1574873 63.0945624,80.8856904 C63.2256487,80.8229112 63.3457706,80.7463452 63.4559025,80.6601777 L71.3322883,85.8371218 C73.779801,87.4450076 77.0384406,87.0813807 79.0800244,84.9712614 L83.0540345,80.8645178 C85.0956183,78.7543985 85.3814254,75.4546751 83.7345624,73.0176117 L78.944065,66.0230254 C79.8460751,64.2132614 80.4717807,63.1174569 81.0558213,61.1811497 L81.0463188,61.1833655 C81.2660954,60.5949645 81.4751513,60.0023782 81.6637401,59.4033909 L90.9204305,57.5328173 C93.783131,56.9537716 95.8612629,54.3918883 95.8612629,51.4410203 L95.8612629,45.6975863 C95.8612629,42.7467183 93.783131,40.1850812 90.9189685,39.6060355 Z" id="Fill-1"></path>
                    </g>
                    <path d="M39.9391712,49 C39.9391712,44.5555195 43.5555195,40.9391712 48,40.9391712 C52.4444805,40.9391712 56.0608288,44.5555195 56.0608288,49 C56.0608288,53.4444805 52.4447242,57.0608288 48,57.0608288 C43.5550322,57.0608288 39.9391712,53.4444805 39.9391712,49 M60,49 C60,42.3832254 54.616531,37 48,37 C41.3832254,37 36,42.383469 36,49 C36,55.6167746 41.3832254,61 48,61 C54.6167746,61 60,55.616531 60,49" id="Fill-8"></path>
                </g>
            </g>
        </g>
    </g>
</svg>